<svg id="svg" xmlns="http://www.w3.org/2000/svg" xmlns:xlink="http://www.w3.org/1999/xlink" width="400" height="400" viewBox="0, 0, 400,400"><g id="svgg"><path id="path0" d="M211.719 26.171 C 211.152 26.855,210.191 27.224,209.584 26.991 C 208.977 26.759,207.715 26.989,206.779 27.504 C 205.844 28.019,204.586 28.522,203.984 28.621 C 203.383 28.721,202.652 29.189,202.359 29.662 C 202.067 30.135,201.241 30.296,200.523 30.021 C 199.638 29.681,199.219 29.924,199.219 30.776 C 199.219 31.466,198.743 32.031,198.161 32.031 C 196.710 32.031,188.281 39.474,188.281 40.755 C 188.281 41.113,187.733 41.406,187.063 41.406 C 186.393 41.406,186.063 41.758,186.328 42.188 C 186.594 42.617,186.351 42.971,185.788 42.975 C 184.720 42.981,182.813 46.387,182.813 48.286 C 182.813 49.005,182.347 49.207,181.469 48.870 C 180.730 48.587,180.376 48.605,180.681 48.910 C 180.987 49.216,180.934 49.850,180.564 50.319 C 179.647 51.482,177.757 57.254,178.006 58.132 C 178.117 58.522,177.897 59.049,177.518 59.303 C 174.601 61.260,174.488 86.764,177.361 94.531 C 177.759 95.605,178.244 97.442,178.440 98.612 C 178.635 99.783,179.697 101.923,180.800 103.369 C 181.903 104.814,182.637 106.165,182.433 106.369 C 181.566 107.236,192.792 117.789,195.547 118.698 C 197.137 119.223,198.438 119.921,198.438 120.249 C 198.438 121.038,203.915 122.656,206.582 122.656 C 207.739 122.656,208.492 122.970,208.255 123.353 C 207.694 124.262,212.754 124.849,217.057 124.374 C 219.302 124.127,220.092 123.778,219.401 123.341 C 218.710 122.902,219.217 122.676,220.911 122.668 C 223.757 122.655,229.688 120.992,229.688 120.207 C 229.688 119.929,231.094 119.138,232.813 118.451 C 234.531 117.763,235.938 116.846,235.938 116.413 C 235.938 115.979,236.486 115.625,237.155 115.625 C 237.825 115.625,238.156 115.273,237.891 114.844 C 237.625 114.414,237.956 114.063,238.626 114.063 C 239.296 114.063,239.844 113.619,239.844 113.076 C 239.844 112.534,240.716 111.435,241.782 110.634 C 242.848 109.833,243.531 108.871,243.299 108.495 C 243.066 108.120,243.208 107.813,243.613 107.813 C 244.018 107.813,244.553 107.197,244.803 106.445 C 245.052 105.693,245.791 103.672,246.445 101.953 C 247.098 100.234,247.638 97.706,247.644 96.335 C 247.651 94.964,248.025 93.615,248.475 93.336 C 248.925 93.058,249.198 92.246,249.080 91.532 C 248.963 90.818,249.130 89.816,249.450 89.305 C 250.220 88.079,249.221 81.938,248.340 82.482 C 247.964 82.715,247.656 81.478,247.656 79.734 C 247.656 77.920,247.283 76.563,246.784 76.563 C 246.288 76.563,246.093 75.868,246.333 74.952 C 246.590 73.967,246.323 73.176,245.642 72.915 C 245.031 72.681,244.531 71.687,244.531 70.707 C 244.531 69.661,243.567 68.164,242.195 67.080 C 240.909 66.065,239.855 64.795,239.851 64.258 C 239.847 63.721,239.334 63.281,238.711 63.281 C 238.088 63.281,237.296 62.821,236.953 62.259 C 235.052 59.148,218.174 57.533,216.091 60.263 C 215.620 60.880,214.619 61.259,213.867 61.104 C 212.999 60.926,212.500 61.299,212.500 62.125 C 212.500 62.841,211.797 63.611,210.938 63.836 C 210.078 64.061,209.375 64.731,209.375 65.325 C 209.375 65.920,208.917 66.406,208.357 66.406 C 207.269 66.406,204.677 72.771,204.684 75.430 C 204.686 76.311,204.248 77.505,203.711 78.083 C 203.075 78.769,203.053 78.957,203.648 78.623 C 204.299 78.258,204.568 79.455,204.584 82.797 C 204.607 87.624,206.404 92.777,208.322 93.513 C 208.896 93.733,209.172 94.228,208.934 94.613 C 208.696 94.998,209.029 95.313,209.673 95.313 C 211.242 95.313,212.029 93.907,211.115 92.739 C 210.710 92.221,210.469 90.654,210.580 89.258 C 210.691 87.861,210.553 86.719,210.274 86.719 C 209.994 86.719,209.766 85.664,209.766 84.375 C 209.766 83.086,209.980 82.031,210.243 82.031 C 210.505 82.031,210.934 80.186,211.196 77.930 C 211.707 73.521,214.249 70.313,217.231 70.313 C 218.066 70.313,218.750 69.873,218.751 69.336 C 218.751 68.678,220.154 68.346,223.048 68.318 C 225.411 68.295,227.344 68.516,227.344 68.809 C 227.344 69.102,228.398 69.779,229.688 70.313 C 230.977 70.846,232.031 71.524,232.031 71.817 C 232.031 72.111,233.283 73.717,234.813 75.388 C 236.900 77.667,237.481 78.876,237.140 80.233 C 236.833 81.459,237.007 81.977,237.679 81.841 C 239.273 81.519,239.514 92.063,237.927 92.672 C 237.262 92.927,236.719 93.761,236.719 94.526 C 236.719 97.719,229.461 107.031,226.972 107.031 C 226.317 107.031,225.781 107.511,225.781 108.097 C 225.781 108.823,224.849 109.134,222.852 109.073 C 220.889 109.014,219.986 109.307,220.117 109.961 C 220.416 111.456,210.613 111.283,209.096 109.766 C 208.451 109.121,207.388 108.594,206.733 108.594 C 205.033 108.594,201.563 106.909,201.563 106.084 C 201.563 105.701,200.508 105.020,199.219 104.570 C 197.930 104.121,196.875 103.390,196.875 102.945 C 196.875 102.500,196.118 101.480,195.193 100.678 C 194.055 99.690,193.865 99.210,194.607 99.193 C 195.332 99.176,195.119 98.679,193.979 97.727 C 193.030 96.936,192.465 96.077,192.723 95.819 C 192.981 95.560,192.615 95.128,191.909 94.857 C 191.203 94.586,190.625 93.544,190.625 92.541 C 190.625 91.538,190.273 90.500,189.844 90.234 C 189.414 89.969,189.063 88.406,189.063 86.762 C 189.063 85.118,188.537 82.765,187.895 81.535 C 186.417 78.700,186.408 76.491,187.866 74.563 C 188.497 73.729,189.024 71.749,189.038 70.163 C 189.051 68.577,189.414 67.062,189.844 66.797 C 190.273 66.531,190.625 65.493,190.625 64.491 C 190.625 63.488,191.175 62.456,191.846 62.198 C 192.518 61.941,192.857 61.389,192.599 60.972 C 192.341 60.554,192.759 59.522,193.526 58.678 C 196.118 55.827,196.875 54.757,196.875 53.939 C 196.875 53.491,197.243 53.125,197.692 53.125 C 198.739 53.125,202.344 49.539,202.344 48.498 C 202.344 48.062,202.868 47.907,203.509 48.152 C 204.174 48.408,204.881 48.062,205.155 47.347 C 205.420 46.658,206.137 46.094,206.749 46.094 C 207.361 46.094,208.064 45.566,208.311 44.922 C 208.559 44.277,209.581 43.750,210.584 43.750 C 211.587 43.750,212.633 43.385,212.909 42.939 C 213.730 41.611,232.739 42.104,234.883 43.508 C 235.855 44.145,236.995 44.452,237.418 44.192 C 237.840 43.931,238.470 44.213,238.819 44.818 C 239.168 45.424,240.156 46.068,241.016 46.248 C 241.875 46.429,242.481 47.022,242.363 47.566 C 242.219 48.229,242.670 48.390,243.730 48.053 C 244.712 47.742,245.313 47.903,245.313 48.477 C 245.313 49.464,249.960 53.873,251.023 53.894 C 251.370 53.901,251.451 54.236,251.202 54.639 C 250.952 55.043,251.203 55.658,251.759 56.007 C 253.931 57.369,258.463 63.495,258.065 64.530 C 257.808 65.202,258.154 65.625,258.963 65.625 C 260.020 65.625,260.179 66.088,259.766 67.968 C 259.342 69.899,259.468 70.228,260.485 69.838 C 261.440 69.471,261.719 69.893,261.719 71.708 C 261.719 73.031,262.210 74.240,262.848 74.485 C 263.669 74.800,263.854 75.682,263.524 77.711 C 263.195 79.742,263.440 80.912,264.425 82.000 C 265.169 82.822,265.533 83.892,265.233 84.378 C 264.504 85.557,264.558 96.091,265.303 97.983 C 265.672 98.919,265.403 100.336,264.587 101.757 C 263.869 103.009,263.281 105.390,263.281 107.048 C 263.281 108.707,262.930 110.281,262.500 110.547 C 262.070 110.812,261.719 112.026,261.719 113.244 C 261.719 114.462,261.219 115.650,260.608 115.884 C 259.901 116.155,259.659 116.934,259.943 118.020 C 260.231 119.118,259.956 119.972,259.174 120.409 C 258.439 120.821,258.120 121.709,258.367 122.654 C 258.596 123.530,258.392 124.219,257.904 124.219 C 257.424 124.219,257.031 124.922,257.031 125.781 C 257.031 126.641,256.680 127.344,256.250 127.344 C 255.820 127.344,255.469 128.047,255.469 128.906 C 255.469 129.766,254.998 130.469,254.422 130.469 C 253.846 130.469,252.911 131.875,252.344 133.594 C 251.777 135.313,251.041 136.719,250.709 136.719 C 250.377 136.719,249.882 137.422,249.609 138.281 C 249.337 139.141,248.610 139.844,247.994 139.844 C 247.379 139.844,246.875 140.547,246.875 141.406 C 246.875 142.266,246.523 142.969,246.094 142.969 C 245.664 142.969,245.313 143.369,245.313 143.858 C 245.313 144.747,242.606 147.961,234.681 156.484 C 232.364 158.975,230.469 161.164,230.469 161.347 C 230.469 162.379,221.037 171.094,219.920 171.094 C 219.094 171.094,218.744 171.513,219.003 172.189 C 219.253 172.840,218.812 173.443,217.915 173.678 C 217.085 173.895,216.406 174.603,216.406 175.252 C 216.406 175.901,215.377 176.887,214.119 177.444 C 212.861 178.001,211.996 178.723,212.198 179.049 C 212.399 179.375,211.650 179.871,210.532 180.152 C 209.343 180.450,208.657 181.070,208.878 181.646 C 209.090 182.197,208.077 183.265,206.581 184.071 C 205.110 184.863,203.906 185.959,203.906 186.506 C 203.906 187.053,203.427 187.500,202.841 187.500 C 202.255 187.500,200.800 188.906,199.609 190.625 C 198.418 192.344,196.976 193.750,196.405 193.750 C 195.834 193.750,194.287 194.805,192.969 196.094 C 191.650 197.383,190.232 198.438,189.817 198.438 C 189.402 198.438,189.063 198.922,189.063 199.515 C 189.063 200.107,188.096 200.993,186.914 201.484 C 185.732 201.974,183.929 203.599,182.907 205.094 C 181.885 206.589,180.748 207.813,180.382 207.813 C 179.635 207.813,175.735 211.136,173.167 213.959 C 170.215 217.204,166.732 220.621,163.398 223.544 C 161.615 225.106,160.156 226.776,160.156 227.255 C 160.156 227.733,159.608 228.125,158.938 228.125 C 158.268 228.125,157.938 228.477,158.203 228.906 C 158.469 229.336,158.138 229.688,157.468 229.688 C 156.798 229.688,156.250 230.226,156.250 230.884 C 156.250 231.542,155.723 232.283,155.078 232.530 C 154.434 232.777,153.906 233.469,153.906 234.068 C 153.906 234.667,153.530 235.156,153.069 235.156 C 152.003 235.156,150.466 236.804,150.137 238.300 C 149.997 238.934,149.558 239.570,149.160 239.714 C 148.763 239.857,148.436 240.384,148.434 240.885 C 148.432 241.387,147.465 242.859,146.285 244.158 C 145.106 245.457,143.461 247.742,142.631 249.236 C 141.800 250.730,140.482 252.413,139.701 252.974 C 138.920 253.535,138.281 254.678,138.281 255.513 C 138.281 256.348,137.551 257.762,136.658 258.654 C 135.766 259.547,135.225 260.772,135.457 261.377 C 135.691 261.985,135.207 262.836,134.375 263.281 C 133.496 263.752,133.056 264.568,133.316 265.246 C 133.561 265.884,133.372 266.406,132.896 266.406 C 132.420 266.406,132.031 267.066,132.031 267.873 C 132.031 268.680,131.488 269.791,130.824 270.342 C 130.160 270.893,129.797 271.815,130.018 272.391 C 130.239 272.966,130.134 273.437,129.786 273.438 C 129.031 273.438,126.153 283.917,125.387 289.453 C 125.090 291.602,124.474 293.590,124.019 293.872 C 123.486 294.202,123.191 299.315,123.191 308.203 C 123.191 317.092,123.486 322.204,124.019 322.534 C 124.474 322.816,125.089 324.805,125.385 326.953 C 125.819 330.101,126.706 334.065,127.744 337.500 C 127.809 337.715,128.135 338.857,128.469 340.039 C 128.803 341.221,129.378 342.187,129.748 342.188 C 130.117 342.188,130.218 342.712,129.973 343.353 C 129.726 343.996,130.043 344.717,130.680 344.961 C 131.316 345.205,132.478 346.830,133.264 348.573 C 135.489 353.507,146.646 365.482,150.683 367.269 C 152.026 367.864,153.125 368.753,153.125 369.244 C 153.125 369.736,154.330 370.365,155.803 370.641 C 157.275 370.917,158.594 371.454,158.732 371.834 C 159.335 373.486,174.212 376.562,181.599 376.562 C 190.363 376.562,201.056 374.044,203.767 371.342 C 204.335 370.776,205.247 370.313,205.794 370.313 C 206.341 370.313,207.810 369.434,209.058 368.360 C 210.307 367.287,211.768 366.408,212.305 366.407 C 212.842 366.407,213.281 365.879,213.281 365.234 C 213.281 364.590,213.829 364.063,214.499 364.063 C 215.169 364.063,215.500 363.711,215.234 363.281 C 214.969 362.852,215.155 362.500,215.649 362.500 C 216.756 362.500,219.470 359.339,219.505 358.008 C 219.520 357.471,220.011 357.031,220.596 357.031 C 221.182 357.031,222.641 354.834,223.839 352.148 C 225.036 349.463,226.252 347.090,226.541 346.875 C 230.984 343.571,230.977 307.266,226.533 303.906 C 226.248 303.691,225.036 301.318,223.839 298.633 C 222.641 295.947,221.182 293.750,220.596 293.750 C 220.011 293.750,219.531 293.260,219.531 292.662 C 219.531 292.063,219.004 291.371,218.359 291.124 C 217.715 290.876,217.188 290.136,217.188 289.478 C 217.188 288.820,216.639 288.281,215.970 288.281 C 215.300 288.281,214.969 287.930,215.234 287.500 C 215.500 287.070,215.169 286.719,214.499 286.719 C 213.829 286.719,213.281 286.372,213.281 285.948 C 213.281 285.524,211.975 284.632,210.379 283.965 C 208.783 283.298,207.263 282.406,207.001 281.982 C 205.262 279.168,178.559 279.083,176.603 281.886 C 176.366 282.225,174.845 283.121,173.224 283.875 C 171.603 284.629,170.462 285.548,170.689 285.915 C 170.917 286.283,170.103 287.027,168.880 287.568 C 167.532 288.165,166.149 289.727,165.362 291.541 C 164.650 293.186,163.784 294.531,163.438 294.531 C 162.403 294.531,160.249 301.608,159.693 306.836 C 159.407 309.521,158.867 311.719,158.493 311.719 C 158.119 311.719,157.813 312.422,157.813 313.281 C 157.813 314.141,158.115 314.844,158.484 314.844 C 158.854 314.844,159.348 316.696,159.581 318.959 C 160.076 323.750,162.376 331.250,163.351 331.250 C 163.720 331.250,164.565 332.300,165.229 333.582 C 165.892 334.865,167.282 336.127,168.317 336.387 C 169.352 336.647,170.377 337.322,170.594 337.887 C 170.811 338.453,172.155 339.168,173.580 339.478 C 175.006 339.787,176.384 340.373,176.644 340.781 C 177.281 341.779,187.560 341.790,188.181 340.794 C 188.451 340.360,190.082 339.627,191.805 339.164 C 193.528 338.701,195.452 337.610,196.079 336.739 C 196.707 335.868,197.670 335.156,198.219 335.156 C 198.769 335.156,199.219 334.629,199.219 333.984 C 199.219 333.340,199.557 332.813,199.970 332.813 C 204.173 332.812,203.041 308.365,198.761 306.723 C 197.108 306.089,195.593 307.020,196.932 307.848 C 197.485 308.189,198.028 309.091,198.140 309.853 C 198.252 310.614,198.554 312.078,198.812 313.106 C 199.350 315.246,198.629 318.179,197.706 317.609 C 197.366 317.399,196.871 319.064,196.605 321.309 C 196.308 323.814,195.606 325.768,194.786 326.367 C 194.052 326.904,193.762 327.344,194.141 327.344 C 195.405 327.344,191.817 329.637,190.513 329.663 C 189.807 329.676,189.027 330.215,188.780 330.859 C 188.214 332.333,181.060 332.485,179.548 331.055 C 178.980 330.518,177.549 329.579,176.367 328.970 C 175.186 328.360,174.219 327.372,174.219 326.775 C 174.219 326.178,173.867 325.906,173.438 326.172 C 173.008 326.437,172.656 326.246,172.656 325.746 C 172.656 325.245,171.777 323.086,170.703 320.948 C 168.747 317.053,168.094 311.435,169.497 310.568 C 169.908 310.314,170.046 309.590,169.804 308.959 C 169.562 308.329,169.753 307.813,170.229 307.813 C 170.705 307.813,171.094 307.355,171.094 306.796 C 171.094 305.359,172.931 301.576,173.633 301.569 C 173.955 301.565,174.219 300.859,174.219 300.000 C 174.219 299.141,174.591 298.438,175.046 298.438 C 175.501 298.438,175.623 298.843,175.316 299.339 C 174.968 299.903,175.102 300.029,175.673 299.676 C 176.176 299.365,176.384 298.781,176.135 298.378 C 175.886 297.975,176.293 297.411,177.039 297.124 C 177.786 296.838,179.038 295.962,179.823 295.177 C 180.608 294.392,182.091 293.750,183.120 293.750 C 184.148 293.750,185.191 293.223,185.439 292.578 C 186.070 290.933,194.729 290.933,196.094 292.578 C 196.629 293.223,197.750 293.750,198.585 293.750 C 201.479 293.750,210.938 301.446,210.938 303.802 C 210.938 304.289,211.289 304.688,211.719 304.688 C 212.148 304.688,212.500 305.204,212.500 305.836 C 212.500 306.467,213.140 308.137,213.921 309.547 C 216.403 314.022,217.399 319.091,216.911 324.765 C 216.245 332.512,215.549 335.983,214.759 335.495 C 214.376 335.258,214.065 335.524,214.067 336.087 C 214.077 338.179,210.507 345.286,209.440 345.299 C 208.831 345.307,208.563 345.542,208.844 345.823 C 209.125 346.104,208.305 347.338,207.021 348.565 C 205.738 349.791,204.688 351.078,204.688 351.423 C 204.688 351.769,203.457 352.535,201.953 353.125 C 200.449 353.715,199.219 354.457,199.219 354.773 C 199.219 355.089,197.900 355.751,196.289 356.244 C 194.678 356.737,192.511 357.555,191.475 358.062 C 189.056 359.246,174.832 359.282,173.361 358.109 C 172.759 357.628,170.947 356.810,169.336 356.291 C 167.725 355.772,166.406 355.094,166.406 354.784 C 166.406 354.474,165.209 353.787,163.746 353.258 C 162.283 352.729,160.888 351.780,160.646 351.148 C 160.404 350.517,159.706 350.000,159.097 350.000 C 158.487 350.000,157.158 348.949,156.143 347.663 C 155.127 346.378,153.857 345.323,153.320 345.320 C 152.783 345.316,152.344 344.785,152.344 344.141 C 152.344 343.496,152.072 342.969,151.740 342.969 C 151.408 342.969,150.445 341.650,149.599 340.039 C 148.754 338.428,147.619 336.828,147.078 336.485 C 146.537 336.141,146.094 335.245,146.094 334.492 C 146.094 333.740,145.806 332.791,145.455 332.383 C 145.104 331.975,144.355 329.707,143.791 327.344 C 143.227 324.980,142.577 322.722,142.346 322.324 C 142.115 321.927,142.009 319.589,142.109 317.129 C 142.212 314.603,141.929 312.432,141.458 312.142 C 140.404 311.490,140.360 304.943,141.406 304.297 C 141.836 304.031,142.203 301.813,142.222 299.368 C 142.240 296.923,142.617 293.340,143.059 291.406 C 143.501 289.473,144.052 286.748,144.283 285.352 C 144.513 283.955,145.015 282.812,145.398 282.813 C 145.781 282.813,146.094 281.775,146.094 280.508 C 146.094 279.240,146.541 277.921,147.087 277.578 C 147.888 277.074,149.818 273.752,150.400 271.875 C 151.199 269.301,152.770 266.548,154.331 264.987 C 155.386 263.932,156.250 262.593,156.250 262.012 C 156.250 261.004,157.563 259.117,160.192 256.349 C 160.856 255.650,161.824 254.092,162.344 252.886 C 162.903 251.587,163.646 250.915,164.167 251.237 C 164.690 251.559,164.906 251.359,164.701 250.744 C 164.511 250.173,164.905 249.120,165.576 248.402 C 166.248 247.685,168.555 245.078,170.703 242.610 C 172.852 240.143,175.664 237.005,176.953 235.639 C 178.242 234.273,180.598 231.690,182.189 229.898 C 183.779 228.107,186.152 226.088,187.462 225.410 C 188.772 224.733,189.844 223.920,189.844 223.605 C 189.844 222.953,192.743 219.811,195.218 217.781 C 196.129 217.033,196.875 216.594,196.875 216.805 C 196.875 217.015,198.793 215.254,201.138 212.891 C 203.482 210.527,205.680 208.591,206.021 208.587 C 206.362 208.583,207.471 207.528,208.486 206.243 C 209.502 204.958,210.782 203.906,211.332 203.906 C 211.883 203.906,212.535 203.379,212.783 202.734 C 213.030 202.090,213.791 201.563,214.475 201.563 C 215.158 201.563,215.500 201.211,215.234 200.781 C 214.969 200.352,215.240 200.000,215.838 200.000 C 216.435 200.000,217.394 199.122,217.968 198.048 C 218.543 196.974,219.163 196.247,219.347 196.431 C 219.531 196.615,221.239 195.208,223.143 193.305 C 225.046 191.401,227.122 189.844,227.755 189.844 C 228.388 189.844,228.906 189.546,228.906 189.182 C 228.906 188.338,240.616 176.172,241.428 176.172 C 242.531 176.172,255.078 162.098,255.078 160.861 C 255.078 160.404,255.605 159.619,256.250 159.117 C 256.895 158.614,257.946 157.189,258.587 155.949 C 259.228 154.710,260.524 153.190,261.467 152.571 C 262.410 151.953,263.398 150.467,263.661 149.269 C 263.924 148.070,265.015 146.328,266.086 145.397 C 267.157 144.466,267.789 143.310,267.491 142.828 C 267.193 142.345,267.446 141.564,268.054 141.092 C 268.662 140.620,269.587 139.268,270.110 138.086 C 270.633 136.904,271.419 135.938,271.858 135.938 C 272.297 135.938,272.656 135.393,272.656 134.728 C 272.656 134.063,273.359 132.063,274.219 130.284 C 275.078 128.506,275.781 126.255,275.781 125.283 C 275.781 124.311,276.233 123.234,276.784 122.890 C 280.837 120.366,283.215 82.467,279.887 73.438 C 279.650 72.793,279.527 71.519,279.614 70.607 C 279.702 69.694,279.264 68.438,278.641 67.815 C 277.958 67.132,277.666 65.852,277.907 64.591 C 278.207 63.021,277.992 62.500,277.044 62.500 C 276.233 62.500,275.781 61.831,275.781 60.630 C 275.781 59.602,275.297 58.575,274.706 58.348 C 274.033 58.090,273.771 57.202,274.005 55.978 C 274.274 54.571,273.916 53.731,272.736 52.994 C 271.833 52.430,271.092 51.613,271.090 51.179 C 271.088 50.746,268.948 48.105,266.334 45.313 C 263.720 42.520,261.116 39.345,260.548 38.259 C 259.979 37.173,258.252 35.789,256.710 35.183 C 255.168 34.578,253.906 33.606,253.906 33.023 C 253.906 32.440,253.299 32.066,252.557 32.192 C 251.786 32.323,251.191 31.919,251.171 31.250 C 251.150 30.588,250.494 30.134,249.664 30.207 C 248.855 30.278,247.696 29.838,247.088 29.230 C 246.480 28.622,245.503 28.125,244.917 28.125 C 244.331 28.125,242.862 27.719,241.652 27.224 C 240.443 26.728,238.926 26.139,238.281 25.914 C 234.895 24.734,212.734 24.948,211.719 26.171 M345.703 66.418 C 343.984 66.792,341.260 67.118,339.648 67.142 C 338.037 67.167,336.719 67.539,336.719 67.969 C 336.719 68.398,335.861 68.750,334.812 68.750 C 333.763 68.750,332.716 69.056,332.484 69.430 C 332.253 69.805,330.978 70.328,329.652 70.593 C 328.311 70.861,327.457 71.426,327.729 71.866 C 327.997 72.301,327.669 72.656,326.999 72.656 C 326.329 72.656,325.781 73.008,325.781 73.438 C 325.781 73.867,325.154 74.219,324.387 74.219 C 323.620 74.219,322.400 75.186,321.675 76.367 C 320.950 77.549,319.117 79.918,317.600 81.632 C 316.084 83.346,314.844 85.016,314.844 85.343 C 314.844 85.670,314.443 85.938,313.953 85.938 C 312.753 85.938,310.993 88.351,310.962 90.039 C 310.949 90.791,310.389 91.406,309.720 91.406 C 309.050 91.406,308.687 91.706,308.913 92.072 C 309.140 92.439,308.848 93.391,308.265 94.188 C 307.682 94.985,307.379 96.092,307.592 96.647 C 307.805 97.202,307.590 97.656,307.115 97.656 C 306.639 97.656,306.250 98.711,306.250 100.000 C 306.250 101.458,305.881 102.270,305.273 102.148 C 304.637 102.021,304.297 102.931,304.297 104.762 C 304.297 106.306,303.903 108.064,303.422 108.668 C 301.801 110.703,300.829 130.116,301.392 149.219 C 302.305 180.150,302.119 183.375,299.229 186.707 C 298.279 187.803,297.818 189.123,298.089 189.976 C 298.397 190.947,298.150 191.406,297.318 191.406 C 296.645 191.406,296.094 191.924,296.094 192.556 C 296.094 193.190,294.956 194.015,293.555 194.396 C 292.158 194.776,291.104 195.489,291.211 195.981 C 291.318 196.473,290.773 196.875,290.000 196.875 C 289.227 196.875,288.260 197.202,287.852 197.603 C 286.724 198.708,276.672 198.860,275.600 197.787 C 275.098 197.286,273.879 196.875,272.891 196.875 C 271.814 196.875,271.094 196.405,271.094 195.703 C 271.094 195.059,270.432 194.531,269.622 194.531 C 267.753 194.531,259.375 185.215,259.375 183.137 C 259.375 182.529,259.023 182.031,258.594 182.031 C 258.164 182.031,257.813 180.997,257.813 179.734 C 257.813 178.470,257.437 177.204,256.978 176.920 C 256.519 176.637,256.311 175.969,256.515 175.436 C 256.719 174.903,256.622 174.040,256.299 173.517 C 255.584 172.359,251.569 173.189,251.549 174.499 C 251.542 174.989,250.659 176.222,249.588 177.238 C 246.989 179.704,246.489 182.136,247.935 185.285 C 248.593 186.718,249.725 189.824,250.449 192.188 C 251.174 194.551,252.776 197.782,254.009 199.368 C 255.241 200.954,256.250 202.624,256.250 203.079 C 256.250 203.534,256.689 203.818,257.227 203.711 C 257.764 203.604,258.115 203.955,258.008 204.492 C 257.900 205.029,258.120 205.469,258.496 205.469 C 258.871 205.469,260.431 206.616,261.962 208.018 C 263.492 209.420,266.437 211.060,268.505 211.661 C 270.573 212.263,272.441 213.014,272.656 213.329 C 273.480 214.540,293.326 214.492,292.578 213.281 C 292.299 212.830,293.042 212.500,294.338 212.500 C 295.571 212.500,297.295 211.834,298.168 211.021 C 299.042 210.207,300.866 208.967,302.222 208.266 C 303.578 207.565,304.688 206.649,304.688 206.230 C 304.688 205.811,305.064 205.469,305.525 205.469 C 306.757 205.469,308.088 203.888,309.637 200.586 C 310.392 198.975,311.387 197.656,311.847 197.656 C 312.306 197.656,312.493 196.932,312.261 196.046 C 312.014 195.100,312.265 194.273,312.870 194.041 C 315.630 192.981,316.484 156.424,313.981 146.483 C 312.642 141.165,314.331 114.608,316.083 113.442 C 317.415 112.555,317.962 110.292,316.948 109.861 C 316.316 109.593,316.455 109.187,317.383 108.600 C 318.135 108.124,318.750 107.070,318.750 106.257 C 318.750 105.445,319.102 104.562,319.531 104.297 C 319.961 104.031,320.313 103.169,320.313 102.381 C 320.313 101.593,320.813 100.757,321.424 100.522 C 322.104 100.261,322.372 99.471,322.114 98.485 C 321.822 97.371,322.065 96.875,322.903 96.875 C 323.569 96.875,324.337 96.172,324.609 95.313 C 324.882 94.453,325.433 93.750,325.834 93.750 C 326.235 93.750,326.563 93.279,326.563 92.704 C 326.563 92.128,327.461 91.248,328.560 90.747 C 329.658 90.247,330.341 89.487,330.076 89.059 C 329.812 88.631,329.968 88.281,330.423 88.281 C 330.878 88.281,331.250 87.738,331.250 87.075 C 331.250 86.412,331.689 85.926,332.227 85.996 C 334.213 86.254,335.235 85.916,334.766 85.156 C 334.500 84.727,334.969 84.375,335.808 84.375 C 336.647 84.375,337.550 83.810,337.814 83.120 C 338.158 82.226,338.856 82.006,340.247 82.355 C 341.591 82.693,342.136 82.541,341.998 81.868 C 341.847 81.135,343.849 80.891,350.000 80.891 C 356.370 80.891,358.154 81.121,357.985 81.919 C 357.825 82.676,358.391 82.810,360.135 82.427 C 361.907 82.037,362.620 82.217,362.975 83.141 C 363.235 83.820,363.938 84.375,364.537 84.375 C 365.135 84.375,365.625 84.869,365.625 85.474 C 365.625 86.188,366.172 86.429,367.188 86.164 C 368.063 85.935,368.750 86.140,368.750 86.630 C 368.750 87.111,370.508 89.329,372.656 91.558 C 374.805 93.787,376.563 96.071,376.563 96.633 C 376.563 97.196,377.127 97.656,377.818 97.656 C 378.603 97.656,378.908 98.088,378.632 98.807 C 378.389 99.441,378.755 100.275,379.446 100.662 C 380.233 101.102,380.545 101.967,380.281 102.976 C 380.038 103.907,380.283 104.749,380.863 104.971 C 382.608 105.641,383.564 117.176,382.425 123.828 C 381.697 128.079,379.137 133.317,376.667 135.607 C 375.544 136.648,374.858 137.500,375.143 137.500 C 375.428 137.500,374.606 138.555,373.317 139.844 C 372.028 141.133,370.649 142.188,370.252 142.188 C 369.856 142.188,369.531 142.539,369.531 142.969 C 369.531 143.398,368.389 143.755,366.992 143.762 C 365.065 143.771,364.736 143.957,365.625 144.531 C 367.073 145.467,367.217 145.438,360.352 145.589 C 357.003 145.662,354.679 145.391,354.667 144.927 C 354.656 144.494,353.248 143.495,351.537 142.707 C 349.827 141.918,348.626 140.951,348.869 140.558 C 349.112 140.165,348.763 139.844,348.093 139.844 C 347.423 139.844,346.875 139.354,346.875 138.755 C 346.875 138.157,346.331 137.458,345.666 137.203 C 344.741 136.848,344.571 136.048,344.943 133.799 C 345.293 131.681,345.206 131.181,344.632 132.009 C 343.939 133.009,343.771 132.994,343.349 131.896 C 342.498 129.678,343.257 124.588,344.403 124.827 C 345.172 124.987,345.314 124.441,344.943 122.753 C 344.623 121.294,344.788 120.246,345.400 119.868 C 346.072 119.453,346.205 119.677,345.845 120.616 C 345.517 121.471,345.635 121.768,346.171 121.437 C 346.633 121.151,346.831 120.228,346.610 119.384 C 346.183 117.749,348.281 114.655,349.364 115.324 C 349.720 115.544,350.207 115.213,350.447 114.589 C 350.705 113.915,351.499 113.615,352.398 113.850 C 353.232 114.068,354.409 113.837,355.013 113.336 C 355.838 112.651,356.249 112.647,356.666 113.322 C 356.989 113.844,358.147 114.035,359.435 113.777 C 361.388 113.387,361.854 113.700,363.390 116.433 C 364.348 118.137,365.562 119.531,366.088 119.531 C 368.825 119.531,366.926 128.391,363.477 131.719 C 361.650 133.480,360.156 135.150,360.156 135.429 C 360.156 136.417,363.103 135.922,364.055 134.774 C 364.586 134.134,365.328 133.801,365.703 134.033 C 367.066 134.875,369.285 131.543,370.157 127.344 C 371.161 122.513,369.789 113.639,367.849 112.409 C 367.270 112.043,367.061 111.737,367.383 111.731 C 367.705 111.724,367.274 111.024,366.424 110.174 C 365.574 109.324,364.389 108.817,363.790 109.047 C 363.192 109.277,362.492 108.917,362.235 108.248 C 361.945 107.493,360.796 107.027,359.204 107.019 C 357.262 107.010,356.924 106.824,357.813 106.250 C 358.671 105.695,358.096 105.489,355.664 105.481 C 353.838 105.474,352.344 105.820,352.344 106.250 C 352.344 106.680,351.578 107.031,350.641 107.031 C 347.971 107.031,343.750 108.802,343.750 109.923 C 343.750 110.481,343.047 110.938,342.188 110.938 C 341.187 110.938,340.625 111.458,340.625 112.386 C 340.625 113.183,339.724 114.806,338.624 115.994 C 337.523 117.181,336.809 118.639,337.037 119.233 C 337.265 119.827,337.156 120.313,336.795 120.313 C 334.575 120.312,335.493 141.635,337.787 143.359 C 338.359 143.789,338.792 144.410,338.749 144.740 C 338.659 145.440,344.914 151.967,348.042 154.435 C 352.042 157.592,375.719 157.748,373.777 154.604 C 373.539 154.220,374.003 153.906,374.807 153.906 C 375.610 153.906,377.042 153.185,377.988 152.304 C 378.946 151.411,380.136 150.948,380.674 151.257 C 381.206 151.563,381.414 151.560,381.138 151.250 C 380.670 150.726,383.944 146.875,384.857 146.875 C 385.798 146.875,387.502 144.540,387.525 143.220 C 387.556 141.453,389.306 139.063,390.568 139.063 C 391.157 139.063,391.325 138.473,391.014 137.496 C 390.685 136.457,390.928 135.772,391.737 135.462 C 392.580 135.138,392.812 134.414,392.488 133.122 C 392.230 132.092,392.338 131.250,392.730 131.250 C 395.421 131.250,395.328 101.671,392.632 99.817 C 392.057 99.422,392.078 99.239,392.700 99.231 C 393.946 99.214,393.037 96.071,391.630 95.531 C 390.876 95.242,390.666 94.474,390.989 93.188 C 391.264 92.093,391.159 91.467,390.745 91.723 C 389.785 92.316,388.534 90.732,387.869 88.082 C 387.573 86.902,386.841 85.938,386.243 85.938 C 385.645 85.938,385.156 85.571,385.156 85.123 C 385.156 84.125,384.070 82.719,380.273 78.804 C 378.662 77.142,377.344 75.582,377.344 75.336 C 377.344 74.233,374.849 72.547,373.808 72.946 C 373.031 73.245,372.656 72.883,372.656 71.836 C 372.656 70.569,372.296 70.373,370.703 70.773 C 369.226 71.144,368.750 70.957,368.750 70.007 C 368.750 69.131,368.039 68.750,366.406 68.750 C 365.117 68.750,364.063 68.449,364.063 68.080 C 364.063 67.712,361.975 67.192,359.425 66.925 C 356.874 66.659,353.446 66.283,351.807 66.089 C 350.169 65.896,347.422 66.044,345.703 66.418 M227.344 132.031 C 227.344 137.066,227.116 138.281,226.172 138.281 C 225.450 138.281,225.000 139.014,225.000 140.188 C 225.000 141.237,224.624 142.327,224.165 142.611 C 223.707 142.895,223.520 143.619,223.750 144.220 C 223.981 144.821,223.886 145.313,223.538 145.313 C 223.191 145.313,222.507 146.191,222.017 147.266 C 221.528 148.340,220.633 149.219,220.030 149.219 C 219.426 149.219,218.769 149.844,218.569 150.609 C 218.109 152.367,210.721 156.250,207.836 156.250 C 206.639 156.250,205.222 156.777,204.688 157.422 C 203.440 158.925,198.413 158.941,196.438 157.447 C 195.604 156.816,193.229 156.289,191.160 156.275 C 189.090 156.261,186.629 155.816,185.691 155.286 C 184.056 154.362,178.539 152.719,174.049 151.818 C 172.881 151.584,171.519 150.903,171.023 150.306 C 170.527 149.708,169.127 149.219,167.912 149.219 C 166.669 149.219,165.386 148.654,164.979 147.926 C 164.581 147.215,163.758 146.825,163.150 147.058 C 162.542 147.291,161.376 146.994,160.560 146.397 C 159.744 145.801,158.244 145.313,157.226 145.313 C 156.209 145.313,155.556 145.022,155.775 144.667 C 155.995 144.312,153.818 143.564,150.939 143.004 C 148.059 142.444,144.824 141.515,143.750 140.940 C 138.965 138.378,109.643 138.364,104.316 140.922 C 103.016 141.546,100.449 142.455,98.610 142.941 C 96.772 143.428,95.451 144.123,95.675 144.486 C 95.899 144.849,95.238 145.358,94.205 145.617 C 93.172 145.876,91.101 147.279,89.603 148.734 C 88.104 150.189,85.803 152.015,84.488 152.792 C 83.173 153.569,81.690 155.187,81.192 156.389 C 80.695 157.591,79.917 158.345,79.464 158.065 C 78.961 157.754,78.825 158.036,79.115 158.792 C 79.376 159.471,79.137 160.200,78.585 160.412 C 78.033 160.624,76.784 162.499,75.810 164.578 C 74.835 166.658,73.780 168.535,73.465 168.750 C 72.526 169.390,69.728 178.971,69.131 183.594 C 68.825 185.957,68.229 188.319,67.806 188.843 C 66.808 190.078,66.841 211.803,67.842 212.423 C 68.257 212.680,68.963 215.879,69.412 219.531 C 69.860 223.184,70.567 227.754,70.983 229.688 C 71.399 231.621,71.999 234.609,72.318 236.328 C 72.637 238.047,73.128 239.629,73.410 239.844 C 74.307 240.528,77.365 253.400,77.354 256.445 C 77.348 258.057,77.652 259.375,78.029 259.375 C 80.863 259.375,81.870 251.482,81.018 235.953 C 80.066 218.597,81.250 188.075,82.915 187.046 C 83.288 186.815,83.594 185.582,83.594 184.304 C 83.594 182.961,84.088 181.793,84.766 181.533 C 85.410 181.285,85.938 180.645,85.938 180.111 C 85.938 178.387,89.817 171.782,92.271 169.328 C 93.582 168.016,95.195 166.119,95.855 165.112 C 96.515 164.105,97.487 163.281,98.016 163.281 C 98.544 163.281,99.584 162.610,100.327 161.789 C 101.070 160.968,102.531 160.083,103.573 159.821 C 104.616 159.559,105.469 159.011,105.469 158.603 C 105.469 158.195,105.987 158.060,106.621 158.304 C 107.254 158.547,108.334 158.184,109.020 157.498 C 109.718 156.800,111.555 156.250,113.188 156.250 C 114.794 156.250,116.790 155.734,117.624 155.103 C 119.406 153.755,131.737 153.413,132.166 154.700 C 132.311 155.136,135.391 155.831,139.009 156.244 C 142.628 156.657,145.834 157.392,146.134 157.878 C 146.447 158.383,147.390 158.536,148.340 158.234 C 149.325 157.922,150.000 158.046,150.000 158.541 C 150.000 159.000,150.709 159.375,151.575 159.375 C 153.733 159.375,159.375 161.188,159.375 161.882 C 159.375 162.192,161.156 162.682,163.333 162.971 C 165.510 163.260,167.808 164.013,168.439 164.644 C 169.071 165.276,170.218 165.628,170.988 165.426 C 171.759 165.225,173.044 165.539,173.844 166.124 C 174.644 166.709,176.198 167.191,177.298 167.196 C 178.397 167.201,181.055 167.751,183.203 168.418 C 191.320 170.941,210.428 169.520,213.804 166.143 C 214.090 165.858,214.785 165.625,215.350 165.625 C 215.915 165.625,217.645 164.395,219.193 162.891 C 220.742 161.387,222.331 160.156,222.723 160.156 C 223.116 160.156,223.438 159.608,223.438 158.938 C 223.438 158.268,223.789 157.938,224.219 158.203 C 224.648 158.469,225.000 158.155,225.000 157.507 C 225.000 156.858,225.458 156.046,226.018 155.703 C 228.684 154.067,231.750 139.166,230.487 133.984 C 230.068 132.266,229.716 129.717,229.706 128.320 C 229.693 126.592,229.313 125.781,228.516 125.781 C 227.572 125.781,227.344 126.997,227.344 132.031 M322.920 147.070 C 323.833 166.557,324.446 174.267,325.113 174.679 C 325.481 174.906,325.781 177.708,325.781 180.905 C 325.781 184.103,326.053 186.719,326.385 186.719 C 326.717 186.719,327.015 194.629,327.047 204.297 C 327.079 213.965,326.807 221.875,326.443 221.875 C 326.079 221.875,325.781 223.085,325.781 224.563 C 325.781 226.042,325.430 227.469,325.000 227.734 C 324.570 228.000,324.219 228.859,324.219 229.644 C 324.219 231.524,322.687 234.368,320.508 236.534 C 319.541 237.495,318.750 238.829,318.750 239.499 C 318.750 240.169,318.398 240.500,317.969 240.234 C 317.539 239.969,317.188 240.300,317.188 240.970 C 317.188 241.639,316.914 242.188,316.580 242.188 C 316.246 242.188,314.872 243.154,313.527 244.336 C 309.257 248.086,307.644 249.132,305.356 249.634 C 304.129 249.904,303.125 250.481,303.125 250.917 C 303.125 251.417,301.611 251.521,299.023 251.200 C 296.267 250.857,295.286 250.939,296.033 251.451 C 296.877 252.029,296.321 252.433,293.720 253.133 C 290.222 254.075,285.330 253.280,283.016 251.393 C 282.484 250.959,280.830 250.833,279.341 251.112 C 277.852 251.391,276.002 251.290,275.231 250.886 C 274.459 250.483,272.246 249.700,270.313 249.147 C 268.379 248.594,266.103 247.681,265.256 247.117 C 264.408 246.554,263.115 246.094,262.382 246.094 C 261.649 246.094,260.499 245.544,259.827 244.872 C 259.155 244.200,258.212 243.894,257.731 244.191 C 257.250 244.488,256.632 244.393,256.358 243.980 C 255.691 242.975,247.283 239.062,245.790 239.062 C 245.141 239.062,244.328 238.608,243.984 238.052 C 243.641 237.496,241.777 236.562,239.844 235.976 C 237.910 235.389,235.625 234.491,234.766 233.979 C 233.906 233.468,231.357 232.610,229.102 232.072 C 226.846 231.534,225.000 230.829,225.000 230.505 C 225.000 228.354,195.085 228.355,193.734 230.505 C 193.311 231.178,189.982 232.608,188.742 232.649 C 188.351 232.662,187.718 233.231,187.336 233.914 C 186.954 234.597,186.169 235.156,185.592 235.156 C 185.014 235.156,184.321 235.734,184.050 236.440 C 183.779 237.146,183.360 237.527,183.120 237.286 C 181.937 236.104,176.562 244.321,176.562 247.312 C 176.562 247.888,176.026 248.660,175.371 249.027 C 173.496 250.076,171.701 272.656,173.493 272.656 C 175.145 272.656,176.441 270.491,177.044 266.724 C 177.810 261.943,177.700 262.464,178.421 260.156 C 179.553 256.529,181.319 253.125,182.068 253.125 C 182.477 253.125,182.813 252.675,182.813 252.126 C 182.813 250.764,188.197 245.313,189.542 245.313 C 190.138 245.313,190.625 245.017,190.625 244.657 C 190.625 243.661,193.901 242.378,198.024 241.759 C 200.519 241.385,201.377 240.988,200.665 240.536 C 200.023 240.130,201.848 239.863,205.320 239.856 C 208.628 239.849,210.842 240.148,210.582 240.567 C 210.336 240.966,212.078 241.534,214.453 241.831 C 216.828 242.127,218.963 242.681,219.197 243.060 C 219.432 243.440,220.232 243.750,220.975 243.750 C 221.718 243.750,223.705 244.453,225.391 245.313 C 227.076 246.172,228.908 246.875,229.462 246.875 C 230.016 246.875,230.469 247.154,230.469 247.494 C 230.469 247.835,232.384 248.765,234.725 249.561 C 237.067 250.357,239.165 251.484,239.388 252.066 C 239.612 252.649,240.520 253.125,241.406 253.125 C 242.293 253.125,243.223 253.659,243.473 254.311 C 243.723 254.963,244.327 255.429,244.815 255.347 C 245.914 255.163,250.000 257.093,250.000 257.797 C 250.000 258.080,251.770 258.793,253.934 259.383 C 256.098 259.972,258.228 260.887,258.667 261.416 C 259.106 261.946,261.186 262.820,263.288 263.358 C 265.390 263.897,266.968 264.566,266.796 264.846 C 266.230 265.762,284.898 268.846,291.016 268.847 C 298.033 268.848,312.181 266.331,313.281 264.885 C 313.496 264.603,314.902 263.755,316.406 263.002 C 321.084 260.659,324.565 258.332,325.676 256.805 C 326.262 255.999,327.757 254.301,328.997 253.032 C 330.238 251.763,331.761 249.507,332.383 248.019 C 333.005 246.530,333.884 245.313,334.335 245.313 C 334.787 245.313,335.156 244.630,335.156 243.796 C 335.156 242.962,335.508 242.062,335.938 241.797 C 336.367 241.531,336.719 240.632,336.719 239.798 C 336.719 238.964,337.070 238.281,337.500 238.281 C 337.930 238.281,338.281 237.206,338.281 235.891 C 338.281 234.577,338.610 233.705,339.012 233.953 C 340.333 234.770,341.016 227.193,341.014 211.719 C 341.013 195.990,340.266 187.147,339.005 187.926 C 338.607 188.172,338.281 187.143,338.281 185.639 C 338.281 184.135,337.930 182.687,337.500 182.422 C 337.070 182.156,336.719 180.750,336.719 179.297 C 336.719 177.844,336.444 176.485,336.108 176.277 C 335.772 176.070,335.411 174.762,335.305 173.372 C 335.199 171.981,334.507 170.346,333.767 169.739 C 333.027 169.131,332.861 168.857,333.398 169.129 C 333.981 169.424,334.375 169.114,334.375 168.359 C 334.375 167.664,334.063 167.288,333.681 167.524 C 333.300 167.760,332.798 166.990,332.566 165.812 C 331.830 162.079,330.310 156.689,329.596 155.284 C 329.216 154.538,328.906 152.906,328.906 151.657 C 328.906 150.408,328.421 149.200,327.827 148.972 C 326.819 148.585,326.394 147.031,325.279 139.648 C 324.988 137.726,324.423 136.719,323.635 136.719 C 322.591 136.719,322.498 138.069,322.920 147.070 M316.588 171.875 C 316.588 173.379,316.748 173.994,316.945 173.242 C 317.141 172.490,317.141 171.260,316.945 170.508 C 316.748 169.756,316.588 170.371,316.588 171.875 M115.899 183.596 C 113.687 183.920,111.402 184.483,110.821 184.846 C 110.241 185.210,109.194 185.414,108.495 185.299 C 107.796 185.185,107.016 185.633,106.761 186.295 C 106.507 186.958,105.734 187.500,105.044 187.500 C 103.602 187.500,92.995 198.327,92.979 199.815 C 92.969 200.808,92.671 201.509,90.384 205.915 C 88.623 209.310,87.538 227.826,88.439 239.124 C 89.257 249.391,88.764 272.405,87.578 279.297 C 87.134 281.875,86.545 285.300,86.269 286.908 C 85.994 288.516,85.455 289.638,85.072 289.401 C 84.688 289.164,84.375 289.647,84.375 290.475 C 84.375 292.786,81.189 300.184,79.364 302.112 C 77.099 304.504,75.781 306.124,75.781 306.517 C 75.781 307.564,67.330 314.974,65.663 315.389 C 64.568 315.661,63.320 316.332,62.891 316.880 C 60.537 319.882,37.500 319.376,37.500 316.323 C 37.500 315.939,36.860 315.625,36.078 315.625 C 35.296 315.625,33.893 314.746,32.959 313.672 C 32.025 312.598,30.819 311.719,30.279 311.719 C 28.946 311.719,25.194 306.905,24.562 304.385 C 24.280 303.262,23.715 302.344,23.307 302.344 C 22.898 302.344,22.781 301.992,23.047 301.563 C 23.312 301.133,23.196 300.781,22.787 300.781 C 21.982 300.781,21.539 299.468,19.624 291.406 C 17.990 284.531,19.918 269.661,22.663 267.965 C 23.162 267.656,23.542 267.180,23.507 266.907 C 23.341 265.614,30.235 258.594,31.671 258.594 C 32.207 258.594,32.838 258.091,33.074 257.477 C 33.322 256.831,35.090 256.154,37.259 255.874 C 39.325 255.607,41.631 255.052,42.383 254.641 C 43.135 254.230,43.750 254.203,43.750 254.581 C 43.750 254.960,45.567 255.445,47.787 255.658 C 50.255 255.895,52.187 256.541,52.756 257.320 C 53.269 258.020,54.114 258.594,54.634 258.594 C 55.805 258.594,57.813 260.532,57.813 261.663 C 57.813 262.123,58.150 262.500,58.562 262.500 C 58.975 262.500,59.748 263.994,60.281 265.820 C 60.814 267.646,61.707 269.422,62.265 269.765 C 63.478 270.511,63.662 277.797,62.487 278.524 C 62.051 278.793,61.896 279.341,62.143 279.741 C 62.390 280.141,62.220 280.469,61.765 280.469 C 61.310 280.469,60.938 280.912,60.938 281.454 C 60.937 282.773,56.099 288.293,54.948 288.286 C 54.447 288.284,53.905 288.675,53.745 289.157 C 53.414 290.150,46.883 290.276,46.169 289.304 C 45.913 288.955,44.736 288.171,43.555 287.562 C 42.373 286.953,41.406 285.987,41.406 285.415 C 41.406 284.843,41.066 284.375,40.650 284.375 C 40.233 284.375,40.082 283.883,40.312 283.282 C 40.543 282.681,40.356 281.957,39.897 281.674 C 38.812 281.003,38.805 274.219,39.890 274.219 C 40.345 274.219,40.500 273.867,40.234 273.438 C 39.969 273.008,40.124 272.656,40.579 272.656 C 41.034 272.656,41.406 272.323,41.406 271.915 C 41.406 270.494,44.972 267.341,46.885 267.070 C 49.612 266.684,49.994 264.063,47.323 264.063 C 46.217 264.063,45.313 264.414,45.313 264.844 C 45.313 265.273,44.792 265.625,44.156 265.625 C 39.704 265.625,35.156 269.674,35.156 273.639 C 35.156 274.438,34.805 274.875,34.375 274.609 C 33.881 274.304,33.598 276.226,33.606 279.837 C 33.614 283.812,33.848 285.191,34.375 284.375 C 34.945 283.493,35.135 283.869,35.144 285.893 C 35.163 290.180,42.051 296.448,47.543 297.177 C 65.132 299.510,75.738 283.917,70.725 263.095 C 69.107 256.377,61.487 246.094,58.126 246.094 C 57.567 246.094,56.828 245.639,56.484 245.083 C 53.858 240.836,31.773 240.828,27.483 245.072 C 26.915 245.634,25.762 246.094,24.920 246.094 C 24.078 246.094,23.186 246.621,22.939 247.266 C 22.691 247.910,22.150 248.438,21.736 248.438 C 20.746 248.438,18.750 250.455,18.750 251.454 C 18.750 251.885,18.047 252.462,17.188 252.734 C 16.328 253.007,15.625 253.656,15.625 254.177 C 15.625 254.698,14.922 255.631,14.063 256.250 C 13.203 256.869,12.500 257.808,12.500 258.337 C 12.500 258.865,12.007 259.579,11.405 259.922 C 10.378 260.508,7.031 269.405,7.031 271.548 C 7.031 272.086,6.592 272.673,6.055 272.852 C 4.747 273.288,4.658 297.674,5.958 299.294 C 6.442 299.897,7.634 302.939,8.606 306.055 C 9.578 309.170,10.697 311.719,11.092 311.719 C 11.488 311.719,11.623 312.023,11.393 312.396 C 11.163 312.768,11.656 313.689,12.489 314.443 C 13.322 315.197,14.378 316.947,14.835 318.333 C 15.292 319.718,16.524 321.311,17.572 321.872 C 18.620 322.433,19.329 323.132,19.147 323.427 C 18.966 323.721,20.032 324.541,21.518 325.249 C 23.003 325.958,24.219 326.852,24.219 327.236 C 24.219 327.621,25.248 328.362,26.506 328.883 C 27.765 329.404,28.984 330.326,29.216 330.931 C 29.448 331.536,30.240 332.031,30.975 332.031 C 32.465 332.031,36.930 333.368,39.702 334.644 C 42.021 335.711,59.744 335.678,61.093 334.604 C 61.652 334.159,64.043 333.335,66.406 332.773 C 68.770 332.211,71.055 331.374,71.484 330.914 C 71.914 330.454,73.232 329.579,74.414 328.970 C 75.596 328.360,76.563 327.578,76.563 327.232 C 76.563 326.886,77.705 326.014,79.102 325.294 C 80.498 324.575,82.048 323.409,82.547 322.704 C 83.045 321.999,85.227 319.532,87.396 317.222 C 89.564 314.912,91.157 312.729,90.936 312.371 C 90.714 312.012,90.839 311.719,91.214 311.719 C 91.589 311.719,92.372 310.504,92.955 309.020 C 93.537 307.535,94.315 306.507,94.683 306.734 C 95.050 306.961,95.301 306.858,95.239 306.503 C 94.865 304.346,95.409 302.311,96.227 302.816 C 96.841 303.196,96.977 302.955,96.642 302.081 C 96.367 301.366,96.439 300.781,96.802 300.781 C 97.164 300.781,97.666 299.814,97.916 298.633 C 98.377 296.457,100.887 284.217,102.388 276.823 C 103.208 272.785,103.462 242.997,102.726 237.109 C 101.639 228.406,101.651 221.884,102.758 219.760 C 103.384 218.560,103.899 216.654,103.901 215.525 C 103.914 210.207,109.590 203.301,115.729 201.135 C 121.367 199.146,132.169 200.194,133.828 202.890 C 134.171 203.449,134.821 203.906,135.272 203.906 C 135.723 203.906,137.077 204.961,138.281 206.250 C 139.485 207.539,140.774 208.594,141.145 208.594 C 141.807 208.594,143.941 212.965,145.531 217.578 C 145.975 218.867,146.810 220.615,147.388 221.463 C 147.965 222.310,148.438 224.299,148.438 225.882 C 148.438 228.375,148.646 228.705,150.000 228.351 C 150.859 228.127,151.563 227.516,151.563 226.994 C 151.563 226.472,152.429 225.581,153.489 225.014 C 154.549 224.447,155.229 223.682,155.002 223.314 C 154.774 222.946,155.166 222.066,155.872 221.360 C 157.230 220.002,156.911 212.144,155.379 209.231 C 154.999 208.507,154.688 207.206,154.688 206.340 C 154.688 205.474,154.247 204.484,153.710 204.140 C 153.172 203.797,152.220 202.461,151.595 201.172 C 150.970 199.883,149.916 198.176,149.252 197.379 C 148.589 196.582,148.135 195.791,148.242 195.621 C 148.771 194.785,148.327 193.750,147.439 193.750 C 146.890 193.750,145.886 193.135,145.207 192.383 C 143.312 190.283,140.700 188.282,138.611 187.330 C 137.570 186.856,136.719 186.132,136.719 185.721 C 136.719 185.310,136.032 185.153,135.194 185.373 C 134.355 185.592,133.564 185.477,133.436 185.117 C 133.190 184.426,124.144 182.760,121.484 182.916 C 120.625 182.966,118.112 183.272,115.899 183.596 " stroke="none" fill="#a33d29" fill-rule="evenodd"></path></g></svg>